<?xml version="1.0" encoding="UTF-8"?>
<svg xmlns="http://www.w3.org/2000/svg" xmlns:xlink="http://www.w3.org/1999/xlink" width="50px" height="50px" viewBox="0 0 50 50" version="1.1">
<g id="surface1">
<path style=" stroke:none;fill-rule:nonzero;fill:rgb(0%,0%,0%);fill-opacity:1;" d="M 20.910156 15.46875 L 21.191406 15.722656 L 21.390625 15.898438 C 23.453125 17.851562 24.5625 20.582031 25 23.339844 L 25.0625 22.976562 C 25.667969 19.578125 27.355469 16.585938 30.183594 14.546875 C 33.152344 12.488281 36.914062 11.738281 40.464844 12.363281 C 43.085938 12.871094 45.414062 14.0625 47.265625 16.015625 C 47.113281 16.40625 46.835938 16.640625 46.527344 16.914062 C 45.699219 17.65625 44.921875 18.449219 44.140625 19.238281 C 43.78125 19.070312 43.527344 18.855469 43.230469 18.589844 C 42.277344 17.769531 41.15625 17.21875 39.941406 16.894531 L 39.695312 16.828125 C 37.625 16.363281 35.386719 16.796875 33.574219 17.859375 C 32.226562 18.722656 31.238281 19.773438 30.535156 21.210938 L 30.441406 21.394531 C 30.089844 22.15625 29.984375 22.878906 29.785156 23.730469 L 49.804688 23.730469 C 49.984375 24.546875 50.035156 25.25 50.03125 26.074219 L 50.03125 26.277344 C 50.023438 27.308594 49.988281 28.296875 49.707031 29.296875 L 49.640625 29.539062 C 48.789062 32.511719 46.996094 34.804688 44.285156 36.339844 C 41.183594 38.03125 37.378906 38.234375 34.015625 37.28125 C 32.078125 36.691406 30.398438 35.738281 28.90625 34.375 L 28.667969 34.164062 C 26.894531 32.488281 25.75 30.183594 25.195312 27.832031 L 24.804688 27.832031 L 24.726562 28.132812 C 23.835938 31.386719 21.90625 34.265625 18.953125 35.996094 C 15.761719 37.804688 11.929688 38.355469 8.363281 37.390625 C 6.472656 36.839844 4.863281 36 3.417969 34.667969 L 3.152344 34.425781 C 1.269531 32.636719 0.105469 29.941406 -0.0195312 27.351562 C -0.0273438 27.003906 -0.0273438 26.660156 -0.0273438 26.3125 C -0.0234375 26.097656 -0.0273438 25.882812 -0.0273438 25.667969 C 0 24.511719 0 24.511719 0.195312 23.730469 L 20.214844 23.730469 C 19.621094 21.351562 18.746094 19.3125 16.601562 17.96875 C 14.59375 16.800781 12.230469 16.40625 9.960938 16.992188 C 8.660156 17.367188 7.554688 17.980469 6.511719 18.835938 C 6.292969 19.007812 6.105469 19.121094 5.859375 19.238281 L 5.710938 19.085938 C 5.484375 18.859375 5.257812 18.628906 5.03125 18.402344 L 4.796875 18.164062 C 4.375 17.742188 3.945312 17.332031 3.492188 16.945312 C 3.226562 16.714844 2.980469 16.464844 2.734375 16.210938 C 3.445312 14.652344 5.789062 13.53125 7.324219 12.957031 C 11.984375 11.339844 17.191406 12.214844 20.910156 15.46875 Z M 4.589844 27.734375 C 5.082031 29.699219 5.890625 31.109375 7.617188 32.226562 C 9.503906 33.351562 11.957031 33.65625 14.09375 33.136719 C 16.292969 32.550781 18.078125 31.304688 19.246094 29.34375 C 19.703125 28.578125 19.703125 28.578125 19.921875 27.734375 Z M 30.078125 27.734375 C 30.777344 29.828125 32.019531 31.433594 33.988281 32.453125 C 36.019531 33.445312 38.5625 33.707031 40.722656 32.984375 C 41.691406 32.621094 42.59375 32.140625 43.359375 31.445312 L 43.558594 31.277344 C 44.5625 30.367188 45.050781 29.109375 45.410156 27.832031 L 45.410156 27.734375 Z M 30.078125 27.734375 "/>
</g>
</svg>
