<?xml version="1.0" encoding="UTF-8"?>
<svg xmlns="http://www.w3.org/2000/svg" xmlns:xlink="http://www.w3.org/1999/xlink" width="50px" height="50px" viewBox="0 0 50 50" version="1.1">
<g id="surface1">
<path style=" stroke:none;fill-rule:nonzero;fill:rgb(0%,0%,0%);fill-opacity:1;" d="M 31.160156 0.09375 C 31.625 0.3125 31.988281 0.582031 32.324219 0.976562 L 32.53125 1.203125 C 33.039062 1.933594 33.09375 2.644531 33.007812 3.515625 C 32.699219 5.183594 30.585938 6.636719 29.417969 7.796875 C 29.171875 8.039062 28.925781 8.285156 28.679688 8.53125 C 28.203125 9.007812 27.726562 9.484375 27.246094 9.960938 L 27.605469 10.078125 L 28.078125 10.230469 L 28.3125 10.304688 C 30.289062 10.957031 31.734375 12.257812 33.171875 13.703125 C 33.304688 13.835938 33.4375 13.96875 33.570312 14.101562 C 33.847656 14.378906 34.125 14.65625 34.398438 14.933594 C 34.75 15.289062 35.105469 15.640625 35.457031 15.992188 C 35.730469 16.265625 36.003906 16.539062 36.277344 16.816406 C 36.410156 16.945312 36.539062 17.074219 36.667969 17.207031 C 36.851562 17.386719 37.03125 17.570312 37.214844 17.753906 L 37.375 17.914062 C 38.039062 18.585938 38.40625 19.230469 38.414062 20.191406 C 38.402344 21.015625 38.203125 21.773438 37.597656 22.363281 C 36.679688 23.0625 35.917969 23.222656 34.765625 23.144531 C 33.679688 22.976562 32.878906 21.855469 32.144531 21.105469 C 31.863281 20.820312 31.578125 20.546875 31.273438 20.285156 C 30.671875 19.765625 30.125 19.191406 29.566406 18.625 C 29.121094 18.175781 28.671875 17.742188 28.191406 17.328125 C 27.992188 17.15625 27.800781 16.96875 27.613281 16.785156 C 26.652344 15.929688 25.390625 15.683594 24.144531 15.691406 L 23.855469 15.695312 C 22.179688 15.722656 21.011719 16.316406 19.824219 17.480469 L 19.546875 17.75 C 19.175781 18.113281 18.8125 18.480469 18.476562 18.878906 C 17.980469 19.445312 17.445312 19.96875 16.910156 20.496094 C 16.71875 20.691406 16.523438 20.886719 16.328125 21.078125 C 15.84375 21.5625 15.363281 22.042969 14.878906 22.523438 C 14.46875 22.929688 14.058594 23.339844 13.648438 23.746094 C 13.460938 23.9375 13.269531 24.125 13.078125 24.316406 C 12.296875 25.09375 12.296875 25.09375 11.5625 25.914062 C 11.40625 26.097656 11.238281 26.273438 11.070312 26.445312 C 10.230469 27.417969 9.886719 28.824219 9.933594 30.09375 C 10.148438 32.28125 11.246094 33.523438 12.730469 35.015625 L 12.996094 35.285156 C 13.328125 35.621094 13.660156 35.957031 13.996094 36.292969 C 14.457031 36.757812 14.917969 37.222656 15.378906 37.683594 C 15.96875 38.273438 16.550781 38.863281 17.136719 39.453125 C 17.550781 39.871094 17.964844 40.289062 18.378906 40.707031 C 18.628906 40.953125 18.875 41.199219 19.121094 41.449219 C 19.394531 41.726562 19.667969 42.003906 19.945312 42.28125 L 20.1875 42.527344 C 21.28125 43.609375 22.597656 44.03125 24.121094 44.078125 C 26.03125 44.019531 27.300781 43.304688 28.613281 41.992188 L 28.820312 41.789062 C 29.25 41.355469 29.25 41.355469 29.679688 40.921875 C 29.992188 40.605469 30.308594 40.296875 30.648438 40.007812 C 31.21875 39.515625 31.734375 38.96875 32.261719 38.433594 C 34.117188 36.535156 34.117188 36.535156 35.4375 36.480469 C 36.371094 36.511719 37.03125 36.847656 37.703125 37.484375 C 38.394531 38.265625 38.4375 39.140625 38.378906 40.136719 C 38.191406 41.367188 36.671875 42.4375 35.828125 43.273438 C 34.859375 44.222656 34.859375 44.222656 33.953125 45.222656 C 31.730469 47.773438 29.042969 49.722656 25.578125 50.015625 C 25.109375 50.042969 24.644531 50.042969 24.175781 50.035156 L 23.964844 50.035156 C 19.796875 50.003906 17.160156 48.167969 14.304688 45.300781 C 14.050781 45.042969 13.792969 44.785156 13.535156 44.53125 C 13.105469 44.097656 12.675781 43.667969 12.25 43.238281 C 11.753906 42.742188 11.261719 42.246094 10.765625 41.753906 C 10.285156 41.273438 9.808594 40.796875 9.328125 40.316406 C 9.125 40.113281 8.921875 39.910156 8.722656 39.707031 C 8.4375 39.425781 8.15625 39.140625 7.871094 38.855469 L 7.621094 38.605469 C 5.054688 36.015625 3.96875 33.089844 3.972656 29.476562 C 3.980469 28.371094 4.074219 27.332031 4.394531 26.269531 L 4.457031 26.0625 C 4.695312 25.300781 5.019531 24.59375 5.402344 23.894531 L 5.5 23.714844 C 6.0625 22.738281 6.863281 21.917969 7.65625 21.125 L 7.925781 20.855469 C 8.164062 20.613281 8.40625 20.371094 8.652344 20.128906 C 8.914062 19.867188 9.175781 19.601562 9.4375 19.339844 C 10.007812 18.765625 10.582031 18.191406 11.152344 17.621094 C 11.511719 17.261719 11.867188 16.902344 12.226562 16.542969 C 13.21875 15.550781 14.210938 14.558594 15.203125 13.566406 L 15.394531 13.375 L 15.777344 12.988281 L 15.972656 12.796875 L 16.164062 12.601562 C 17.199219 11.566406 18.234375 10.53125 19.265625 9.492188 C 20.328125 8.425781 21.394531 7.363281 22.457031 6.296875 C 23.054688 5.699219 23.652344 5.101562 24.246094 4.503906 C 24.753906 3.996094 25.261719 3.488281 25.769531 2.980469 C 26.027344 2.722656 26.289062 2.460938 26.546875 2.203125 C 26.824219 1.917969 27.109375 1.640625 27.390625 1.359375 L 27.632812 1.109375 C 28.636719 0.121094 29.761719 -0.339844 31.160156 0.09375 Z M 31.160156 0.09375 "/>
<path style=" stroke:none;fill-rule:nonzero;fill:rgb(0%,0%,0%);fill-opacity:1;" d="M 22.65625 27.035156 L 22.925781 27.035156 C 23.230469 27.035156 23.53125 27.035156 23.832031 27.035156 L 24.480469 27.03125 C 25.191406 27.03125 25.898438 27.027344 26.609375 27.027344 L 27.34375 27.027344 C 28.621094 27.023438 29.902344 27.023438 31.183594 27.023438 L 31.382812 27.023438 C 32.441406 27.019531 33.503906 27.019531 34.5625 27.015625 C 35.652344 27.011719 36.742188 27.011719 37.835938 27.011719 C 38.445312 27.011719 39.058594 27.007812 39.667969 27.007812 C 40.246094 27.003906 40.820312 27.003906 41.394531 27.003906 C 41.605469 27.003906 41.816406 27.003906 42.027344 27.003906 C 42.316406 27 42.605469 27 42.894531 27.003906 L 43.144531 27 C 43.867188 27.007812 44.472656 27.234375 45.09375 27.601562 C 45.773438 28.320312 46.054688 29.09375 46.09375 30.078125 C 46.058594 30.886719 45.71875 31.503906 45.167969 32.085938 C 44.535156 32.65625 43.925781 32.757812 43.109375 32.753906 L 42.832031 32.753906 C 42.523438 32.753906 42.214844 32.753906 41.90625 32.753906 L 41.242188 32.757812 C 40.644531 32.757812 40.042969 32.757812 39.445312 32.757812 C 38.941406 32.757812 38.441406 32.757812 37.941406 32.757812 C 36.691406 32.761719 35.441406 32.757812 34.195312 32.757812 C 33.109375 32.757812 32.027344 32.757812 30.941406 32.761719 C 29.828125 32.761719 28.714844 32.765625 27.597656 32.761719 C 26.972656 32.761719 26.347656 32.761719 25.722656 32.765625 C 25.136719 32.765625 24.546875 32.765625 23.960938 32.765625 C 23.746094 32.765625 23.53125 32.765625 23.3125 32.765625 C 23.019531 32.765625 22.726562 32.765625 22.429688 32.765625 L 22.171875 32.765625 C 21.402344 32.757812 20.769531 32.472656 20.214844 31.933594 C 19.601562 31.101562 19.4375 30.324219 19.53125 29.296875 C 19.710938 28.527344 20.136719 27.839844 20.808594 27.40625 C 21.425781 27.085938 21.964844 27.035156 22.65625 27.035156 Z M 22.65625 27.035156 "/>
</g>
</svg>
